<?xml version="1.0" encoding="UTF-8" standalone="no"?>
<svg
   xmlns:dc="http://purl.org/dc/elements/1.1/"
   xmlns:cc="http://creativecommons.org/ns#"
   xmlns:rdf="http://www.w3.org/1999/02/22-rdf-syntax-ns#"
   xmlns:svg="http://www.w3.org/2000/svg"
   xmlns="http://www.w3.org/2000/svg"
   xmlns:sodipodi="http://sodipodi.sourceforge.net/DTD/sodipodi-0.dtd"
   xmlns:inkscape="http://www.inkscape.org/namespaces/inkscape"
   viewBox="0 0 100 100"
   version="1.1"
   id="svg255"
   sodipodi:docname="snmp.svg"
   width="100"
   height="100"
   inkscape:version="0.92.1 r15371">
  <metadata
     id="metadata259">
    <rdf:RDF>
      <cc:Work
         rdf:about="">
        <dc:format>image/svg+xml</dc:format>
        <dc:type
           rdf:resource="http://purl.org/dc/dcmitype/StillImage" />
        <dc:title></dc:title>
      </cc:Work>
    </rdf:RDF>
  </metadata>
  <sodipodi:namedview
     pagecolor="#ffffff"
     bordercolor="#666666"
     borderopacity="1"
     objecttolerance="10"
     gridtolerance="10"
     guidetolerance="10"
     inkscape:pageopacity="0"
     inkscape:pageshadow="2"
     inkscape:window-width="1426"
     inkscape:window-height="872"
     id="namedview257"
     showgrid="false"
     inkscape:zoom="3.337544"
     inkscape:cx="82.145177"
     inkscape:cy="51.136486"
     inkscape:window-x="346"
     inkscape:window-y="13"
     inkscape:window-maximized="0"
     inkscape:current-layer="svg255" />
  <defs
     id="defs4">
    <style
       id="style2">.cls-1,.cls-3,.cls-5,.cls-6,.cls-8,.cls-9{fill:none;}.cls-1{stroke:#d62027;}.cls-1,.cls-3,.cls-5,.cls-9{stroke-linecap:round;stroke-linejoin:round;}.cls-1,.cls-3,.cls-5,.cls-8{stroke-width:2px;}.cls-2{fill:#d62027;}.cls-3,.cls-8,.cls-9{stroke:#3e4c70;}.cls-4{fill:#3e4c70;}.cls-5{stroke:#158aff;}.cls-7{fill:#158aff;}.cls-8{stroke-miterlimit:10;}.cls-9{stroke-width:3.7px;}</style>
  </defs>
  <g
     transform="matrix(1.0998675,0,0,1.0998675,-183.88682,-331.98692)"
     id="g402">
    <line
       class="cls-5"
       x1="212.7"
       y1="334.79999"
       x2="212.7"
       y2="314.39999"
       id="line102"
       style="fill:none;stroke:#158aff;stroke-width:2px;stroke-linecap:round;stroke-linejoin:round" />
    <path
       class="cls-7"
       d="m 212.7,307.3 a 2.9,2.9 0 0 1 2.9,3 3,3 0 1 1 -5.9,0 2.9,2.9 0 0 1 3,-3 m 0,-2 a 5,5 0 0 0 -5,5 5,5 0 1 0 9.9,0 4.9,4.9 0 0 0 -4.9,-5 z"
       id="path104"
       inkscape:connector-curvature="0"
       style="fill:#158aff" />
    <polyline
       class="cls-3"
       points="196.9 320 203.4 326.6 203.4 334.8"
       id="polyline106"
       style="fill:none;stroke:#3e4c70;stroke-width:2px;stroke-linecap:round;stroke-linejoin:round" />
    <path
       class="cls-4"
       d="m 193.9,314 a 2.9,2.9 0 0 1 2.1,0.9 3,3 0 0 1 0,4.3 3.2,3.2 0 0 1 -4.2,0 3,3 0 0 1 0,-4.3 2.9,2.9 0 0 1 2.1,-0.9 m 0,-2 a 5.1,5.1 0 0 0 -3.5,1.5 5,5 0 1 0 7,0 5.1,5.1 0 0 0 -3.5,-1.5 z"
       id="path108"
       inkscape:connector-curvature="0"
       style="fill:#3e4c70" />
    <polyline
       class="cls-3"
       points="228.4 320 221.9 326.6 221.9 334.8"
       id="polyline110"
       style="fill:none;stroke:#3e4c70;stroke-width:2px;stroke-linecap:round;stroke-linejoin:round" />
    <path
       class="cls-4"
       d="m 231.4,314 a 2.9,2.9 0 0 1 2.1,0.9 3,3 0 0 1 0,4.3 3.2,3.2 0 0 1 -2.1,0.8 3.4,3.4 0 0 1 -2.1,-0.8 3,3 0 0 1 0,-4.3 3,3 0 0 1 2.1,-0.9 m 0,-2 a 5.1,5.1 0 0 0 -3.5,1.5 5,5 0 1 0 7,0 5.1,5.1 0 0 0 -3.5,-1.5 z"
       id="path112"
       inkscape:connector-curvature="0"
       style="fill:#3e4c70" />
    <line
       class="cls-5"
       x1="212.7"
       y1="359.39999"
       x2="212.7"
       y2="379.29999"
       id="line114"
       style="fill:none;stroke:#158aff;stroke-width:2px;stroke-linecap:round;stroke-linejoin:round" />
    <path
       class="cls-7"
       d="m 212.7,380.6 a 2.9,2.9 0 0 1 2.9,3 3,3 0 1 1 -5.9,0 2.9,2.9 0 0 1 3,-3 m 0,-2 a 5,5 0 0 0 -5,5 5,5 0 1 0 9.9,0 4.9,4.9 0 0 0 -4.9,-5 z"
       id="path116"
       inkscape:connector-curvature="0"
       style="fill:#158aff" />
    <polyline
       class="cls-3"
       points="228.6 374 221.9 367.3 221.9 359.4"
       id="polyline118"
       style="fill:none;stroke:#3e4c70;stroke-width:2px;stroke-linecap:round;stroke-linejoin:round" />
    <path
       class="cls-4"
       d="m 231.4,373.8 a 3,3 0 0 1 0,6 3,3 0 0 1 -2.1,-0.9 2.9,2.9 0 0 1 0,-4.2 3,3 0 0 1 2.1,-0.9 m 0,-2 a 4.7,4.7 0 0 0 -3.5,1.5 4.8,4.8 0 0 0 0,7 4.8,4.8 0 0 0 7,0 4.8,4.8 0 0 0 0,-7 4.7,4.7 0 0 0 -3.5,-1.5 z"
       id="path120"
       inkscape:connector-curvature="0"
       style="fill:#3e4c70" />
    <polyline
       class="cls-3"
       points="196.9 373.8 203.4 367.3 203.4 359.4"
       id="polyline122"
       style="fill:none;stroke:#3e4c70;stroke-width:2px;stroke-linecap:round;stroke-linejoin:round" />
    <path
       class="cls-4"
       d="m 193.9,373.8 a 3,3 0 1 1 -2.1,0.9 2.9,2.9 0 0 1 2.1,-0.9 m 0,-2 a 5,5 0 1 0 3.5,8.5 4.8,4.8 0 0 0 0,-7 4.7,4.7 0 0 0 -3.5,-1.5 z"
       id="path124"
       inkscape:connector-curvature="0"
       style="fill:#3e4c70" />
    <rect
       class="cls-3"
       x="174.7"
       y="334.79999"
       width="75.900002"
       height="24.26"
       rx="4.5"
       id="rect126"
       style="fill:none;stroke:#3e4c70;stroke-width:2px;stroke-linecap:round;stroke-linejoin:round" />
    <path
       class="cls-4"
       d="m 189.7,350.6 a 0.8,0.8 0 0 1 0.5,-1.4 h 0.5 a 3.8,3.8 0 0 0 2.7,1 c 1,0 1.7,-0.5 1.7,-1.2 v 0 c 0,-0.7 -0.4,-1.1 -2.2,-1.5 -1.8,-0.4 -3.2,-1.1 -3.2,-2.9 v 0 c 0,-1.6 1.4,-2.8 3.3,-2.8 a 5.4,5.4 0 0 1 3.1,0.9 0.8,0.8 0 0 1 0.4,0.7 0.9,0.9 0 0 1 -0.9,0.8 h -0.4 a 4,4 0 0 0 -2.2,-0.8 c -1,0 -1.6,0.5 -1.6,1.2 v 0 c 0,0.8 0.4,1.1 2.3,1.5 1.9,0.4 3.1,1.3 3.1,2.9 v 0 c 0,1.8 -1.4,2.9 -3.5,2.9 a 6,6 0 0 1 -3.6,-1.3 z"
       id="path128"
       inkscape:connector-curvature="0"
       style="fill:#3e4c70" />
    <path
       class="cls-4"
       d="m 200.5,342.8 a 0.9,0.9 0 0 1 0.9,-0.9 h 0.2 a 0.9,0.9 0 0 1 0.8,0.5 l 4.9,6.3 v -6 a 0.9,0.9 0 0 1 0.8,-0.8 0.9,0.9 0 0 1 0.9,0.8 v 8.2 a 0.8,0.8 0 0 1 -0.8,0.8 h -0.1 a 1.1,1.1 0 0 1 -0.9,-0.5 l -5,-6.4 v 6.1 a 0.9,0.9 0 0 1 -0.8,0.9 0.9,0.9 0 0 1 -0.9,-0.9 z"
       id="path130"
       inkscape:connector-curvature="0"
       style="fill:#3e4c70" />
    <path
       class="cls-4"
       d="m 213.2,342.8 a 0.8,0.8 0 0 1 0.8,-0.9 h 0.2 a 0.9,0.9 0 0 1 0.8,0.5 l 3,4.6 2.9,-4.7 a 1.2,1.2 0 0 1 0.8,-0.4 h 0.2 a 0.8,0.8 0 0 1 0.8,0.9 v 8.1 a 0.8,0.8 0 0 1 -0.8,0.9 0.9,0.9 0 0 1 -0.9,-0.9 v -5.8 l -2.3,3.5 a 0.9,0.9 0 0 1 -0.8,0.5 c -0.3,0 -0.5,-0.2 -0.7,-0.5 l -2.3,-3.5 v 5.8 a 0.9,0.9 0 0 1 -0.9,0.9 0.8,0.8 0 0 1 -0.8,-0.9 z"
       id="path132"
       inkscape:connector-curvature="0"
       style="fill:#3e4c70" />
    <path
       class="cls-4"
       d="m 226.9,342.8 a 0.8,0.8 0 0 1 0.9,-0.8 h 3 c 2.2,0 3.7,1.2 3.7,3.2 v 0 c 0,2.2 -1.8,3.4 -3.9,3.4 h -2 v 2.3 a 0.8,0.8 0 0 1 -0.8,0.9 0.9,0.9 0 0 1 -0.9,-0.9 z m 3.7,4.2 c 1.3,0 2.1,-0.7 2.1,-1.7 v 0 c 0,-1.2 -0.8,-1.8 -2.1,-1.8 h -2 v 3.5 z"
       id="path134"
       inkscape:connector-curvature="0"
       style="fill:#3e4c70" />
  </g>
</svg>
